# xmcd CD database file
#
# Track frame offsets:
#	180
#	19160
#	35535
#	59756
#	89718
#	102999
#	121803
#	136320
#	164815
#	181020
#
# Disc length: 3347 seconds
#
# Revision: 0
# Processed by: cddbd v1.4PL0 Copyright (c) Steve Scherf et al.
# Submitted via: CDex 1.50beta10
#
DISCID=8c0d110a
DTITLE=Jake's Blues - The Gypsy King
DYEAR=1996
DGENRE=Blues
TTITLE0=The Gypsy King
TTITLE1=Mirror Mirror
TTITLE2=Elmos Blues
TTITLE3=Blues Ryder
TTITLE4=Mama She Treats Your Little Boy Mean
TTITLE5=Behind The Curve
TTITLE6=Keep On Doggin'
TTITLE7=The Cop Song
TTITLE8=Elmwood Avenue
TTITLE9=Mean Ole World
EXTD=YEAR: 1996
EXTT0=
EXTT1=
EXTT2=
EXTT3=
EXTT4=
EXTT5=
EXTT6=
EXTT7=
EXTT8=
EXTT9=
PLAYORDER=
